<mxfile host="65bd71144e" modified="2020-10-07T01:16:07.807Z" agent="5.0 (Windows NT 10.0; Win64; x64) AppleWebKit/537.36 (KHTML, like Gecko) Code/1.49.3 Chrome/83.0.4103.122 Electron/9.2.1 Safari/537.36" etag="9zekjznJ6lMW4Wnno0Uk" version="13.6.5">
    <diagram id="6hGFLwfOUW9BJ-s0fimq" name="Page-1">
        <mxGraphModel dx="1140" dy="563" grid="1" gridSize="10" guides="1" tooltips="1" connect="1" arrows="1" fold="1" page="1" pageScale="1" pageWidth="827" pageHeight="1169" math="0" shadow="0">
            <root>
                <mxCell id="0"/>
                <mxCell id="1" parent="0"/>
                <mxCell id="44" style="edgeStyle=orthogonalEdgeStyle;rounded=0;orthogonalLoop=1;jettySize=auto;html=1;" edge="1" parent="1" source="2" target="8">
                    <mxGeometry relative="1" as="geometry"/>
                </mxCell>
                <mxCell id="2" value="Products" style="swimlane;fillColor=#008a00;strokeColor=#005700;fontColor=#ffffff;labelBackgroundColor=none;labelBorderColor=none;gradientColor=none;swimlaneFillColor=none;" parent="1" vertex="1">
                    <mxGeometry x="290" y="50" width="210" height="200" as="geometry"/>
                </mxCell>
                <mxCell id="26" value="Product_id" style="text;html=1;align=center;verticalAlign=middle;resizable=0;points=[];autosize=1;fontSize=13;" parent="2" vertex="1">
                    <mxGeometry x="5" y="40" width="80" height="20" as="geometry"/>
                </mxCell>
                <mxCell id="25" value="Category_id" style="text;html=1;align=center;verticalAlign=middle;resizable=0;points=[];autosize=1;fontSize=13;" parent="2" vertex="1">
                    <mxGeometry y="120" width="90" height="20" as="geometry"/>
                </mxCell>
                <mxCell id="27" value="ProductName" style="text;html=1;align=center;verticalAlign=middle;resizable=0;points=[];autosize=1;fontSize=13;" parent="2" vertex="1">
                    <mxGeometry x="5" y="60" width="90" height="20" as="geometry"/>
                </mxCell>
                <mxCell id="28" value="Description" style="text;html=1;align=center;verticalAlign=middle;resizable=0;points=[];autosize=1;fontSize=13;" parent="2" vertex="1">
                    <mxGeometry x="5" y="80" width="80" height="20" as="geometry"/>
                </mxCell>
                <mxCell id="34" value="Price: id,status,method,expireDate" style="text;html=1;align=center;verticalAlign=middle;resizable=0;points=[];autosize=1;fontSize=13;" parent="2" vertex="1">
                    <mxGeometry x="5" y="100" width="210" height="20" as="geometry"/>
                </mxCell>
                <mxCell id="35" value="User_id" style="text;html=1;align=center;verticalAlign=middle;resizable=0;points=[];autosize=1;" vertex="1" parent="2">
                    <mxGeometry x="5" y="140" width="60" height="20" as="geometry"/>
                </mxCell>
                <mxCell id="11" style="edgeStyle=orthogonalEdgeStyle;rounded=0;orthogonalLoop=1;jettySize=auto;html=1;" parent="1" source="4" target="2" edge="1">
                    <mxGeometry relative="1" as="geometry"/>
                </mxCell>
                <mxCell id="41" style="edgeStyle=orthogonalEdgeStyle;rounded=0;orthogonalLoop=1;jettySize=auto;html=1;entryX=0.017;entryY=0.75;entryDx=0;entryDy=0;entryPerimeter=0;" edge="1" parent="1" source="4" target="19">
                    <mxGeometry relative="1" as="geometry">
                        <mxPoint x="120" y="320" as="targetPoint"/>
                    </mxGeometry>
                </mxCell>
                <mxCell id="4" value="User" style="swimlane;rounded=0;shadow=0;fillColor=#0050ef;strokeColor=#001DBC;fontColor=#ffffff;startSize=23;" parent="1" vertex="1">
                    <mxGeometry x="20" y="50" width="200" height="200" as="geometry"/>
                </mxCell>
                <mxCell id="22" value="Password" style="text;html=1;align=center;verticalAlign=middle;resizable=0;points=[];autosize=1;fontSize=13;" parent="4" vertex="1">
                    <mxGeometry x="5" y="80" width="70" height="20" as="geometry"/>
                </mxCell>
                <mxCell id="21" value="E-mail" style="text;html=1;align=center;verticalAlign=middle;resizable=0;points=[];autosize=1;fontSize=13;" parent="4" vertex="1">
                    <mxGeometry x="5" y="110" width="50" height="20" as="geometry"/>
                </mxCell>
                <mxCell id="23" value="User_id" style="text;html=1;align=center;verticalAlign=middle;resizable=0;points=[];autosize=1;fontSize=13;" parent="4" vertex="1">
                    <mxGeometry x="15" y="30" width="60" height="20" as="geometry"/>
                </mxCell>
                <mxCell id="24" value="CustomerName" style="text;html=1;align=center;verticalAlign=middle;resizable=0;points=[];autosize=1;fontSize=13;" parent="4" vertex="1">
                    <mxGeometry y="60" width="110" height="20" as="geometry"/>
                </mxCell>
                <mxCell id="9" style="edgeStyle=orthogonalEdgeStyle;rounded=0;orthogonalLoop=1;jettySize=auto;html=1;" parent="1" source="5" target="2" edge="1">
                    <mxGeometry relative="1" as="geometry">
                        <mxPoint x="600" y="180" as="targetPoint"/>
                    </mxGeometry>
                </mxCell>
                <mxCell id="5" value="Category" style="swimlane;fillColor=#e3c800;strokeColor=#B09500;fontColor=#ffffff;gradientColor=none;" parent="1" vertex="1">
                    <mxGeometry x="580" y="50" width="200" height="200" as="geometry"/>
                </mxCell>
                <mxCell id="32" value="Category_id" style="text;html=1;align=center;verticalAlign=middle;resizable=0;points=[];autosize=1;fontSize=13;" parent="5" vertex="1">
                    <mxGeometry x="20" y="30" width="90" height="20" as="geometry"/>
                </mxCell>
                <mxCell id="33" value="Description" style="text;html=1;align=center;verticalAlign=middle;resizable=0;points=[];autosize=1;fontSize=13;" parent="5" vertex="1">
                    <mxGeometry x="20" y="60" width="80" height="20" as="geometry"/>
                </mxCell>
                <mxCell id="8" value="Sales" style="swimlane;rounded=0;shadow=0;labelBackgroundColor=none;html=0;fillColor=#fa6800;strokeColor=#C73500;fontColor=#ffffff;" parent="1" vertex="1">
                    <mxGeometry x="160" y="360" width="200" height="200" as="geometry"/>
                </mxCell>
                <mxCell id="18" value="Date" style="text;html=1;align=center;verticalAlign=middle;resizable=0;points=[];autosize=1;fontSize=13;" parent="8" vertex="1">
                    <mxGeometry x="10" y="60" width="40" height="20" as="geometry"/>
                </mxCell>
                <mxCell id="19" value="User_id" style="text;html=1;align=center;verticalAlign=middle;resizable=0;points=[];autosize=1;fontSize=13;" parent="8" vertex="1">
                    <mxGeometry x="10" y="80" width="60" height="20" as="geometry"/>
                </mxCell>
                <mxCell id="20" value="Products_id" style="text;html=1;align=center;verticalAlign=middle;resizable=0;points=[];autosize=1;fontSize=13;" parent="8" vertex="1">
                    <mxGeometry x="10" y="100" width="80" height="20" as="geometry"/>
                </mxCell>
                <mxCell id="30" value="Quantity" style="text;html=1;align=center;verticalAlign=middle;resizable=0;points=[];autosize=1;fontSize=13;" parent="8" vertex="1">
                    <mxGeometry x="10" y="130" width="60" height="20" as="geometry"/>
                </mxCell>
                <mxCell id="31" value="Sales_id" style="text;html=1;align=center;verticalAlign=middle;resizable=0;points=[];autosize=1;fontSize=13;" parent="8" vertex="1">
                    <mxGeometry x="5" y="40" width="70" height="20" as="geometry"/>
                </mxCell>
                <mxCell id="13" value="UsersBO" style="swimlane;rounded=0;shadow=0;fillColor=#dae8fc;strokeColor=#6c8ebf;gradientColor=#7ea6e0;" parent="1" vertex="1">
                    <mxGeometry x="600" y="360" width="200" height="200" as="geometry"/>
                </mxCell>
                <mxCell id="14" value="Roles: {admin,sales,masterData}" style="text;html=1;align=center;verticalAlign=middle;resizable=0;points=[];autosize=1;fontSize=13;" parent="13" vertex="1">
                    <mxGeometry y="90" width="200" height="20" as="geometry"/>
                </mxCell>
                <mxCell id="16" value="UserName" style="text;html=1;align=center;verticalAlign=middle;resizable=0;points=[];autosize=1;fontSize=13;" parent="13" vertex="1">
                    <mxGeometry x="5" y="30" width="80" height="20" as="geometry"/>
                </mxCell>
                <mxCell id="17" value="Password" style="text;html=1;align=center;verticalAlign=middle;resizable=0;points=[];autosize=1;fontSize=13;" parent="13" vertex="1">
                    <mxGeometry x="10" y="60" width="70" height="20" as="geometry"/>
                </mxCell>
            </root>
        </mxGraphModel>
    </diagram>
</mxfile>